<svg width="56" height="55" viewBox="0 0 56 55" fill="none" xmlns="http://www.w3.org/2000/svg">
<path fill-rule="evenodd" clip-rule="evenodd" d="M25.0239 50.2658C13.6122 48.9555 4.75 39.2626 4.75 27.4999C4.75 14.8434 15.0101 4.58325 27.6667 4.58325C40.3232 4.58325 50.5833 14.8434 50.5833 27.4999C50.5833 39.317 43.0605 38.3452 36.6352 37.5152C32.9293 37.0364 29.5885 36.6049 28.2668 38.7015C27.3629 40.1353 28.34 41.9233 29.5385 43.1218C31.036 44.6193 31.036 47.0472 29.5385 48.5447C28.34 49.7433 26.7078 50.4592 25.0239 50.2658ZM25.5698 16.041C25.5698 17.9395 24.0308 19.4785 22.1323 19.4785C20.2338 19.4785 18.6948 17.9395 18.6948 16.041C18.6948 14.1425 20.2338 12.6035 22.1323 12.6035C24.0308 12.6035 25.5698 14.1425 25.5698 16.041ZM15.0625 29.7915C16.961 29.7915 18.5 28.2525 18.5 26.354C18.5 24.4556 16.961 22.9165 15.0625 22.9165C13.164 22.9165 11.625 24.4556 11.625 26.354C11.625 28.2525 13.164 29.7915 15.0625 29.7915ZM40.2708 29.7915C42.1693 29.7915 43.7083 28.2525 43.7083 26.354C43.7083 24.4556 42.1693 22.9165 40.2708 22.9165C38.3724 22.9165 36.8333 24.4556 36.8333 26.354C36.8333 28.2525 38.3724 29.7915 40.2708 29.7915ZM33.3958 19.479C35.2943 19.479 36.8333 17.94 36.8333 16.0415C36.8333 14.1431 35.2943 12.604 33.3958 12.604C31.4974 12.604 29.9583 14.1431 29.9583 16.0415C29.9583 17.94 31.4974 19.479 33.3958 19.479Z" fill="url(#paint0_linear_1917_64947)"/>
<defs>
<linearGradient id="paint0_linear_1917_64947" x1="28.2894" y1="-9.22146" x2="55.6341" y2="63.9169" gradientUnits="userSpaceOnUse">
<stop stop-color="white"/>
<stop offset="1" stop-color="white" stop-opacity="0"/>
</linearGradient>
</defs>
</svg>
