<svg width="55" height="55" viewBox="0 0 55 55" fill="none" xmlns="http://www.w3.org/2000/svg">
<path d="M35.5207 17.1876C35.5207 21.6174 31.9296 25.2084 27.4998 25.2084C23.0701 25.2084 19.479 21.6174 19.479 17.1876C19.479 12.7578 23.0701 9.16675 27.4998 9.16675C31.9296 9.16675 35.5207 12.7578 35.5207 17.1876Z" fill="url(#paint0_linear_1917_64950)"/>
<path d="M41.25 37.8126C41.25 42.2424 35.0939 45.8334 27.5 45.8334C19.9061 45.8334 13.75 42.2424 13.75 37.8126C13.75 33.3828 19.9061 29.7917 27.5 29.7917C35.0939 29.7917 41.25 33.3828 41.25 37.8126Z" fill="url(#paint1_linear_1917_64950)"/>
<path d="M16.3215 11.4583C16.7282 11.4583 17.1252 11.4982 17.5086 11.5741C16.5746 13.233 16.0418 15.148 16.0418 17.1874C16.0418 19.1772 16.549 21.0485 17.4411 22.6791C17.0787 22.7466 16.7044 22.782 16.3215 22.782C13.0802 22.782 10.4525 20.2471 10.4525 17.1201C10.4525 13.9932 13.0802 11.4583 16.3215 11.4583Z" fill="url(#paint2_linear_1917_64950)"/>
<path d="M12.4836 43.5094C11.1822 41.9536 10.3127 40.0445 10.3127 37.8124C10.3127 35.6485 11.1298 33.7882 12.3655 32.2591C8.00059 32.5977 4.5835 34.985 4.5835 37.8798C4.5835 40.8017 8.06065 43.2066 12.4836 43.5094Z" fill="url(#paint3_linear_1917_64950)"/>
<path d="M38.958 17.1874C38.958 19.1772 38.4508 21.0485 37.5587 22.6791C37.9211 22.7466 38.2954 22.782 38.6783 22.782C41.9197 22.782 44.5473 20.2471 44.5473 17.1201C44.5473 13.9932 41.9197 11.4583 38.6783 11.4583C38.2716 11.4583 37.8746 11.4982 37.4912 11.5741C38.4252 13.233 38.958 15.148 38.958 17.1874Z" fill="url(#paint4_linear_1917_64950)"/>
<path d="M42.5162 43.5094C46.9392 43.2066 50.4163 40.8017 50.4163 37.8798C50.4163 34.985 46.9992 32.5977 42.6343 32.2591C43.87 33.7882 44.6872 35.6485 44.6872 37.8124C44.6872 40.0445 43.8177 41.9536 42.5162 43.5094Z" fill="url(#paint5_linear_1917_64950)"/>
<defs>
<linearGradient id="paint0_linear_1917_64950" x1="27.7178" y1="4.32248" x2="37.3323" y2="29.9713" gradientUnits="userSpaceOnUse">
<stop stop-color="white"/>
<stop offset="1" stop-color="white" stop-opacity="0"/>
</linearGradient>
<linearGradient id="paint1_linear_1917_64950" x1="27.8736" y1="24.9475" x2="33.9783" y2="52.8655" gradientUnits="userSpaceOnUse">
<stop stop-color="white"/>
<stop offset="1" stop-color="white" stop-opacity="0"/>
</linearGradient>
<linearGradient id="paint2_linear_1917_64950" x1="11.2217" y1="1.77943" x2="40.3674" y2="33.1343" gradientUnits="userSpaceOnUse">
<stop stop-color="white"/>
<stop offset="1" stop-color="white" stop-opacity="0"/>
</linearGradient>
<linearGradient id="paint3_linear_1917_64950" x1="11.2217" y1="1.77943" x2="40.3674" y2="33.1343" gradientUnits="userSpaceOnUse">
<stop stop-color="white"/>
<stop offset="1" stop-color="white" stop-opacity="0"/>
</linearGradient>
<linearGradient id="paint4_linear_1917_64950" x1="44.1294" y1="1.77943" x2="73.2751" y2="33.1343" gradientUnits="userSpaceOnUse">
<stop stop-color="white"/>
<stop offset="1" stop-color="white" stop-opacity="0"/>
</linearGradient>
<linearGradient id="paint5_linear_1917_64950" x1="44.1294" y1="1.77943" x2="73.2751" y2="33.1343" gradientUnits="userSpaceOnUse">
<stop stop-color="white"/>
<stop offset="1" stop-color="white" stop-opacity="0"/>
</linearGradient>
</defs>
</svg>
