<svg width="55" height="55" viewBox="0 0 55 55" fill="none" xmlns="http://www.w3.org/2000/svg">
<path d="M23.5514 37.847C23.5621 37.5953 23.9791 37.4953 24.1028 37.7148C24.6833 38.7454 25.6736 40.261 26.7974 40.9501C27.9211 41.6392 29.721 41.8347 30.9028 41.8849C31.1545 41.8956 31.2545 42.3126 31.0349 42.4363C30.0044 43.0168 28.4888 44.0071 27.7996 45.1309C27.1105 46.2546 26.915 48.0545 26.8648 49.2362C26.8542 49.488 26.4371 49.588 26.3135 49.3684C25.7329 48.3379 24.7426 46.8223 23.6189 46.1331C22.4951 45.444 20.6953 45.2485 19.5135 45.1983C19.2618 45.1876 19.1618 44.7706 19.3813 44.647C20.4119 44.0664 21.9275 43.0761 22.6166 41.9524C23.3057 40.8286 23.5012 39.0288 23.5514 37.847Z" fill="url(#paint0_linear_1917_64956)"/>
<path d="M42.3779 35.5554C42.3585 35.3041 41.9188 35.1987 41.7876 35.4139C41.3928 36.0613 40.8233 36.8426 40.1904 37.2308C39.5575 37.6189 38.6029 37.7722 37.8469 37.8305C37.5956 37.8499 37.4902 38.2896 37.7054 38.4208C38.3528 38.8156 39.1341 39.3851 39.5223 40.018C39.9104 40.6509 40.0637 41.6055 40.122 42.3615C40.1414 42.6128 40.5811 42.7182 40.7123 42.503C41.1071 41.8556 41.6766 41.0743 42.3095 40.6861C42.9424 40.298 43.897 40.1447 44.653 40.0864C44.9043 40.067 45.0097 39.6273 44.7945 39.4961C44.1471 39.1013 43.3658 38.5318 42.9776 37.8989C42.5895 37.266 42.4362 36.3114 42.3779 35.5554Z" fill="url(#paint1_linear_1917_64956)"/>
<path d="M33.696 9.17074L33.1407 8.46931C30.9942 5.7581 29.921 4.4025 28.6724 4.60261C27.4238 4.80273 26.8268 6.42604 25.6327 9.67266L25.3238 10.5126C24.9844 11.4352 24.8148 11.8965 24.4894 12.2351C24.164 12.5736 23.7197 12.7512 22.8312 13.1062L22.0222 13.4295L21.4542 13.6567C18.7053 14.7596 17.3202 15.3846 17.1433 16.599C16.9547 17.8944 18.2658 19.0025 20.8879 21.2188L21.5663 21.7922C22.3114 22.422 22.684 22.7369 22.8975 23.1661C23.1111 23.5953 23.1415 24.0902 23.2023 25.0801L23.2577 25.9813C23.4717 29.4647 23.5787 31.2064 24.7107 31.8069C25.8427 32.4074 27.25 31.4689 30.0646 29.5921L30.0646 29.5921L30.7928 29.1065C31.5926 28.5731 31.9926 28.3065 32.4499 28.2332C32.9073 28.1598 33.3704 28.2882 34.2965 28.5449L35.1397 28.7787C38.3988 29.6821 40.0283 30.1338 40.9166 29.2095C41.8048 28.2853 41.3636 26.5971 40.481 23.2209L40.2526 22.3474C40.0018 21.388 39.8764 20.9083 39.9455 20.4337C40.0146 19.9592 40.2704 19.5436 40.782 18.7124L40.782 18.7124L41.2477 17.9556C43.048 15.0306 43.9481 13.568 43.3651 12.3963C42.782 11.2246 41.102 11.1198 37.7419 10.91L36.8726 10.8557C35.9177 10.7961 35.4403 10.7663 35.0256 10.5464C34.611 10.3264 34.306 9.94118 33.696 9.17074L33.696 9.17074Z" fill="url(#paint2_linear_1917_64956)"/>
<path d="M20.2467 30.5395C15.3488 32.9324 11.2733 36.7223 9.73584 41.2511C8.01125 30.4629 10.4035 23.4963 14.2381 19.1665C14.5686 19.8419 14.998 20.4011 15.3837 20.8381C16.1856 21.7465 17.3367 22.719 18.5056 23.7065L19.3467 24.4173C19.5061 24.5521 19.6302 24.6571 19.7356 24.748C19.7463 24.8955 19.757 25.0676 19.7707 25.2907L19.839 26.4033C19.9309 27.9043 20.0205 29.3696 20.2467 30.5395Z" fill="url(#paint3_linear_1917_64956)"/>
<defs>
<linearGradient id="paint0_linear_1917_64956" x1="25.3698" y1="34.0015" x2="32.4994" y2="53.0214" gradientUnits="userSpaceOnUse">
<stop stop-color="white"/>
<stop offset="1" stop-color="white" stop-opacity="0"/>
</linearGradient>
<linearGradient id="paint1_linear_1917_64956" x1="41.3494" y1="33.087" x2="45.7374" y2="44.7928" gradientUnits="userSpaceOnUse">
<stop stop-color="white"/>
<stop offset="1" stop-color="white" stop-opacity="0"/>
</linearGradient>
<linearGradient id="paint2_linear_1917_64956" x1="30.6925" y1="-3.69225" x2="47.5729" y2="39.7164" gradientUnits="userSpaceOnUse">
<stop stop-color="white"/>
<stop offset="1" stop-color="white" stop-opacity="0"/>
</linearGradient>
<linearGradient id="paint3_linear_1917_64956" x1="14.8572" y1="12.4974" x2="34.1671" y2="38.3426" gradientUnits="userSpaceOnUse">
<stop stop-color="white"/>
<stop offset="1" stop-color="white" stop-opacity="0"/>
</linearGradient>
</defs>
</svg>
