<svg width="55" height="55" viewBox="0 0 55 55" fill="none" xmlns="http://www.w3.org/2000/svg">
<path d="M16.0415 11.0672C16.0415 14.6142 19.9968 18.3507 23.2597 20.8296C25.091 22.2209 26.0066 22.9166 27.4998 22.9166C28.9931 22.9166 29.9087 22.2209 31.74 20.8296C35.0029 18.3507 38.9582 14.6143 38.9582 11.0672C38.9582 4.67304 32.6559 2.28577 27.4998 7.22519C22.3438 2.28577 16.0415 4.67304 16.0415 11.0672Z" fill="url(#paint0_linear_1917_64962)"/>
<path d="M14.3455 49.015H13.7498C11.5892 49.015 10.5089 49.015 9.83772 48.3438C9.1665 47.6726 9.1665 46.5923 9.1665 44.4317V41.8835C9.1665 40.6953 9.1665 40.1011 9.4717 39.5706C9.77691 39.04 10.2373 38.7722 11.1582 38.2366C17.2207 34.7106 25.8305 32.7257 31.5769 36.1531C31.9629 36.3834 32.3102 36.6613 32.6069 36.9947C33.8859 38.4312 33.7927 40.5994 32.3187 41.8859C32.0074 42.1576 31.6756 42.3636 31.3415 42.4352C31.6161 42.4034 31.8792 42.3669 32.1303 42.3269C34.2189 41.9937 35.9722 40.8776 37.5773 39.6651L41.7188 36.5366C43.1788 35.4337 45.3457 35.4335 46.806 36.5361C48.1207 37.5288 48.5227 39.1632 47.6915 40.4955C46.7223 42.0491 45.3567 44.0366 44.0455 45.2511C42.7324 46.4672 40.7775 47.553 39.1816 48.3233C37.4137 49.1766 35.4606 49.6683 33.4741 49.9898C29.4451 50.642 25.2461 50.5425 21.2581 49.7209C19.0036 49.2564 16.6621 49.015 14.3455 49.015Z" fill="url(#paint1_linear_1917_64962)"/>
<defs>
<linearGradient id="paint0_linear_1917_64962" x1="27.8112" y1="-0.953051" x2="37.0096" y2="29.7203" gradientUnits="userSpaceOnUse">
<stop stop-color="white"/>
<stop offset="1" stop-color="white" stop-opacity="0"/>
</linearGradient>
<linearGradient id="paint1_linear_1917_64962" x1="29.175" y1="29.5307" x2="33.5851" y2="58.1029" gradientUnits="userSpaceOnUse">
<stop stop-color="white"/>
<stop offset="1" stop-color="white" stop-opacity="0"/>
</linearGradient>
</defs>
</svg>
