<svg width="55" height="55" viewBox="0 0 55 55" fill="none" xmlns="http://www.w3.org/2000/svg">
<path fill-rule="evenodd" clip-rule="evenodd" d="M21.9828 7.33387C21.4247 7.80947 21.1456 8.04728 20.8476 8.24703C20.1644 8.70491 19.3972 9.0227 18.5904 9.18199C18.2384 9.25148 17.8729 9.28065 17.142 9.33898C15.3055 9.48553 14.3873 9.55881 13.6212 9.8294C11.8492 10.4553 10.4555 11.849 9.82964 13.6209C9.55905 14.387 9.48577 15.3053 9.33922 17.1418C9.28089 17.8727 9.25173 18.2382 9.18224 18.5901C9.02295 19.397 8.70516 20.1642 8.24727 20.8474C8.04752 21.1454 7.80972 21.4244 7.33412 21.9825C6.13916 23.3847 5.54165 24.0859 5.19128 24.8189C4.3809 26.5144 4.3809 28.4854 5.19128 30.1809C5.54165 30.914 6.13914 31.6151 7.33412 33.0173C7.80967 33.5754 8.04754 33.8545 8.24727 34.1525C8.70516 34.8356 9.02295 35.6029 9.18224 36.4097C9.25173 36.7617 9.28089 37.1271 9.33922 37.8581C9.48577 39.6946 9.55905 40.6128 9.82964 41.3789C10.4555 43.1508 11.8492 44.5446 13.6212 45.1704C14.3873 45.441 15.3055 45.5143 17.142 45.6609C17.8729 45.7192 18.2384 45.7484 18.5904 45.8178C19.3972 45.9771 20.1644 46.2949 20.8476 46.7528C21.1456 46.9526 21.4247 47.1904 21.9828 47.666C23.385 48.8609 24.0861 49.4584 24.8192 49.8088C26.5146 50.6192 28.4857 50.6192 30.1812 49.8088C30.9142 49.4584 31.6153 48.8609 33.0176 47.666C33.5757 47.1904 33.8547 46.9526 34.1527 46.7528C34.8359 46.2949 35.6031 45.9771 36.4099 45.8178C36.7619 45.7484 37.1274 45.7192 37.8583 45.6609C39.6948 45.5143 40.6131 45.441 41.3792 45.1704C43.1511 44.5446 44.5448 43.1508 45.1707 41.3789C45.4413 40.6128 45.5146 39.6946 45.6611 37.8581C45.7194 37.1271 45.7486 36.7617 45.8181 36.4097C45.9774 35.6029 46.2952 34.8356 46.7531 34.1525C46.9528 33.8545 47.1906 33.5754 47.6662 33.0173C48.8612 31.6151 49.4587 30.914 49.809 30.1809C50.6194 28.4854 50.6194 26.5144 49.809 24.8189C49.4587 24.0859 48.8612 23.3847 47.6662 21.9825C47.1906 21.4244 46.9528 21.1454 46.7531 20.8473C46.2952 20.1642 45.9774 19.397 45.8181 18.5901C45.7486 18.2382 45.7194 17.8727 45.6611 17.1418C45.5146 15.3053 45.4413 14.387 45.1707 13.6209C44.5448 11.849 43.1511 10.4553 41.3792 9.8294C40.6131 9.55881 39.6948 9.48553 37.8583 9.33898C37.1274 9.28065 36.7619 9.25148 36.4099 9.18199C35.6031 9.0227 34.8359 8.70491 34.1527 8.24703C33.8547 8.04728 33.5757 7.80948 33.0176 7.33387C31.6153 6.1389 30.9142 5.54141 30.1812 5.19104C28.4857 4.38066 26.5146 4.38066 24.8192 5.19104C24.0861 5.54141 23.385 6.13891 21.9828 7.33387ZM37.5227 22.6029C38.2511 21.8746 38.2511 20.6937 37.5227 19.9653C36.7944 19.2369 35.6135 19.2369 34.8851 19.9653L23.7699 31.0804L20.1152 27.4257C19.3868 26.6973 18.2059 26.6973 17.4775 27.4257C16.7492 28.154 16.7492 29.335 17.4775 30.0633L22.4511 35.0369C23.1795 35.7653 24.3604 35.7653 25.0888 35.0369L37.5227 22.6029Z" fill="url(#paint0_linear_1917_64966)"/>
<defs>
<linearGradient id="paint0_linear_1917_64966" x1="28.1229" y1="-9.25751" x2="55.593" y2="64.0249" gradientUnits="userSpaceOnUse">
<stop stop-color="white"/>
<stop offset="1" stop-color="white" stop-opacity="0"/>
</linearGradient>
</defs>
</svg>
