<svg width="55" height="55" viewBox="0 0 55 55" fill="none" xmlns="http://www.w3.org/2000/svg">
<path d="M42.068 3.69898C42.5564 2.88501 43.6122 2.62107 44.4261 3.10945L43.5418 4.58327C44.4261 3.10945 44.4253 3.10898 44.4261 3.10945L44.4293 3.11136L44.4329 3.11354L44.4414 3.11871L44.4634 3.13227C44.4802 3.14275 44.5014 3.15614 44.5266 3.17245C44.5771 3.20506 44.6438 3.24946 44.7244 3.30591C44.8855 3.4187 45.1032 3.58027 45.3583 3.79284C45.8673 4.21699 46.5329 4.85063 47.1958 5.71241C48.5316 7.44889 49.8439 10.1001 49.8439 13.7499C49.8439 17.3998 48.5316 20.051 47.1958 21.7875C46.5329 22.6492 45.8673 23.2829 45.3583 23.707C45.1032 23.9196 44.8855 24.0812 44.7244 24.194C44.6438 24.2504 44.5771 24.2948 44.5266 24.3274C44.514 24.3356 44.5025 24.343 44.4919 24.3496C44.4813 24.3564 44.4718 24.3623 44.4634 24.3676L44.4414 24.3812L44.4329 24.3863L44.4293 24.3885C44.4285 24.389 44.4261 24.3904 43.5418 22.9166L44.4261 24.3904C43.6122 24.8788 42.5564 24.6149 42.068 23.8009C41.5817 22.9904 41.8414 21.9401 42.6473 21.449L42.66 21.4409C42.6767 21.4301 42.7085 21.4091 42.7531 21.3778C42.8426 21.3152 42.983 21.2118 43.1577 21.0663C43.508 20.7743 43.9882 20.3194 44.4712 19.6916C45.4271 18.4489 46.4064 16.5168 46.4064 13.7499C46.4064 10.9831 45.4271 9.05098 44.4712 7.80829C43.9882 7.18049 43.508 6.72558 43.1577 6.4336C42.983 6.28809 42.8426 6.18468 42.7531 6.12202C42.7085 6.09074 42.6767 6.06979 42.66 6.05899L42.6473 6.05089C41.8414 5.55983 41.5817 4.50952 42.068 3.69898Z" fill="url(#paint0_linear_1917_64969)"/>
<path d="M22.9168 22.9166C27.9794 22.9166 32.0835 18.8125 32.0835 13.7499C32.0835 8.68732 27.9794 4.58327 22.9168 4.58327C17.8542 4.58327 13.7502 8.68732 13.7502 13.7499C13.7502 18.8125 17.8542 22.9166 22.9168 22.9166Z" fill="url(#paint1_linear_1917_64969)"/>
<path d="M4.5835 40.1041C4.5835 45.7995 4.5835 50.4166 22.9168 50.4166C41.2502 50.4166 41.2502 45.7995 41.2502 40.1041C41.2502 34.4087 33.0421 29.7916 22.9168 29.7916C12.7916 29.7916 4.5835 34.4087 4.5835 40.1041Z" fill="url(#paint2_linear_1917_64969)"/>
<path d="M39.8428 7.69279C39.0288 7.20441 37.9731 7.46835 37.4847 8.28231L38.0535 10.6278L38.0713 10.64C38.0982 10.6588 38.1491 10.696 38.2163 10.752C38.3518 10.8649 38.5455 11.0477 38.742 11.3031C39.125 11.801 39.5314 12.5873 39.5314 13.7499C39.5314 14.9126 39.125 15.6989 38.742 16.1968C38.5455 16.4522 38.3518 16.635 38.2163 16.7479C38.1491 16.8039 38.0982 16.8411 38.0713 16.8599L38.0535 16.872C37.2558 17.3658 37.0005 18.4105 37.4847 19.2176C37.9731 20.0315 39.0288 20.2955 39.8428 19.8071L38.9585 18.3333C39.8428 19.8071 39.842 19.8075 39.8428 19.8071L39.8459 19.8052L39.8492 19.8032L39.8564 19.7988L39.8735 19.7883L39.9175 19.7603C39.9512 19.7386 39.9933 19.7105 40.0426 19.676C40.1411 19.607 40.2692 19.5117 40.4169 19.3887C40.711 19.1436 41.0902 18.782 41.4667 18.2927C42.2295 17.301 42.9689 15.7956 42.9689 13.7499C42.9689 11.7043 42.2295 10.1989 41.4667 9.2072C41.0902 8.71782 40.711 8.35632 40.4169 8.11119C40.2692 7.98815 40.1411 7.89283 40.0426 7.82389C39.9933 7.78938 39.9512 7.76132 39.9175 7.73956L39.8735 7.71156L39.8564 7.70103L39.8492 7.69662L39.8459 7.69463C39.8451 7.69418 39.8428 7.69279 38.9585 9.1666L39.8428 7.69279Z" fill="url(#paint3_linear_1917_64969)"/>
<defs>
<linearGradient id="paint0_linear_1917_64969" x1="27.8287" y1="-11.4956" x2="57.394" y2="63.5748" gradientUnits="userSpaceOnUse">
<stop stop-color="white"/>
<stop offset="1" stop-color="white" stop-opacity="0"/>
</linearGradient>
<linearGradient id="paint1_linear_1917_64969" x1="27.8287" y1="-11.4956" x2="57.394" y2="63.5748" gradientUnits="userSpaceOnUse">
<stop stop-color="white"/>
<stop offset="1" stop-color="white" stop-opacity="0"/>
</linearGradient>
<linearGradient id="paint2_linear_1917_64969" x1="27.8287" y1="-11.4956" x2="57.394" y2="63.5748" gradientUnits="userSpaceOnUse">
<stop stop-color="white"/>
<stop offset="1" stop-color="white" stop-opacity="0"/>
</linearGradient>
<linearGradient id="paint3_linear_1917_64969" x1="27.8287" y1="-11.4956" x2="57.394" y2="63.5748" gradientUnits="userSpaceOnUse">
<stop stop-color="white"/>
<stop offset="1" stop-color="white" stop-opacity="0"/>
</linearGradient>
</defs>
</svg>
