<svg width="55" height="55" viewBox="0 0 55 55" fill="none" xmlns="http://www.w3.org/2000/svg">
<path fill-rule="evenodd" clip-rule="evenodd" d="M22.9168 9.16675H32.0835C40.7259 9.16675 45.0471 9.16675 47.732 11.8516C50.4168 14.5365 50.4168 18.8577 50.4168 27.5001C50.4168 36.1425 50.4168 40.4637 47.732 43.1486C45.0471 45.8334 40.7259 45.8334 32.0835 45.8334H22.9168C14.2744 45.8334 9.95321 45.8334 7.26835 43.1486C4.5835 40.4637 4.5835 36.1425 4.5835 27.5001C4.5835 18.8577 4.5835 14.5365 7.26835 11.8516C9.95321 9.16675 14.2744 9.16675 22.9168 9.16675ZM30.3647 20.6251C30.3647 19.6758 31.1343 18.9063 32.0835 18.9063H43.5418C44.4911 18.9063 45.2606 19.6758 45.2606 20.6251C45.2606 21.5743 44.4911 22.3438 43.5418 22.3438H32.0835C31.1343 22.3438 30.3647 21.5743 30.3647 20.6251ZM32.6564 27.5001C32.6564 26.5508 33.4259 25.7813 34.3752 25.7813H43.5418C44.4911 25.7813 45.2606 26.5508 45.2606 27.5001C45.2606 28.4493 44.4911 29.2188 43.5418 29.2188H34.3752C33.4259 29.2188 32.6564 28.4493 32.6564 27.5001ZM34.9481 34.3751C34.9481 33.4258 35.7176 32.6563 36.6668 32.6563H43.5418C44.4911 32.6563 45.2606 33.4258 45.2606 34.3751C45.2606 35.3243 44.4911 36.0938 43.5418 36.0938H36.6668C35.7176 36.0938 34.9481 35.3243 34.9481 34.3751ZM25.2085 20.6251C25.2085 23.1564 23.1565 25.2084 20.6252 25.2084C18.0939 25.2084 16.0418 23.1564 16.0418 20.6251C16.0418 18.0938 18.0939 16.0417 20.6252 16.0417C23.1565 16.0417 25.2085 18.0938 25.2085 20.6251ZM20.6252 38.9584C29.7918 38.9584 29.7918 36.9064 29.7918 34.3751C29.7918 31.8438 25.6878 29.7917 20.6252 29.7917C15.5626 29.7917 11.4585 31.8438 11.4585 34.3751C11.4585 36.9064 11.4585 38.9584 20.6252 38.9584Z" fill="url(#paint0_linear_1917_64972)"/>
<defs>
<linearGradient id="paint0_linear_1917_64972" x1="28.1229" y1="-1.90586" x2="46.5197" y2="59.4409" gradientUnits="userSpaceOnUse">
<stop stop-color="white"/>
<stop offset="1" stop-color="white" stop-opacity="0"/>
</linearGradient>
</defs>
</svg>
