<svg width="36" height="36" viewBox="0 0 36 36" fill="none" xmlns="http://www.w3.org/2000/svg">
<path fill-rule="evenodd" clip-rule="evenodd" d="M5.33535 5.39867C3.75831 6.97571 3.34457 9.26174 3.23602 13.1149H32.3562C32.2477 9.26174 31.8339 6.97571 30.2569 5.39867C28.119 3.26074 24.678 3.26074 17.7961 3.26074C10.9142 3.26074 7.47328 3.26074 5.33535 5.39867ZM3.19742 17.8595C3.19742 16.9493 3.19742 16.0994 3.20236 15.3047H12.3216L12.3216 30.9983V32.3944C8.90497 32.2525 6.81014 31.795 5.33535 30.3202C3.19742 28.1823 3.19742 24.7414 3.19742 17.8595ZM9.0369 10.5601C9.84317 10.5601 10.4968 9.90649 10.4968 9.10023C10.4968 8.29396 9.84317 7.64036 9.0369 7.64036C8.23064 7.64036 7.57703 8.29396 7.57703 9.10023C7.57703 9.90649 8.23064 10.5601 9.0369 10.5601ZM14.8764 9.10023C14.8764 9.90649 14.2228 10.5601 13.4165 10.5601C12.6103 10.5601 11.9566 9.90649 11.9566 9.10023C11.9566 8.29396 12.6103 7.64036 13.4165 7.64036C14.2228 7.64036 14.8764 8.29396 14.8764 9.10023ZM17.7961 10.5601C18.6024 10.5601 19.256 9.90649 19.256 9.10023C19.256 8.29396 18.6024 7.64036 17.7961 7.64036C16.9899 7.64036 16.3363 8.29396 16.3363 9.10023C16.3363 9.90649 16.9899 10.5601 17.7961 10.5601Z" fill="url(#paint0_linear_1954_14597)"/>
<path d="M32.3948 17.8595C32.3948 24.7414 32.3948 28.1823 30.2569 30.3202C28.119 32.4582 24.678 32.4582 17.7961 32.4582C16.6012 32.4582 15.51 32.4582 14.5114 32.447V30.9983L14.5114 15.3047H32.3899C32.3948 16.0994 32.3948 16.9493 32.3948 17.8595Z" fill="url(#paint1_linear_1954_14597)"/>
<defs>
<linearGradient id="paint0_linear_1954_14597" x1="18.1928" y1="-5.5563" x2="35.6922" y2="41.1271" gradientUnits="userSpaceOnUse">
<stop stop-color="white"/>
<stop offset="1" stop-color="white" stop-opacity="0"/>
</linearGradient>
<linearGradient id="paint1_linear_1954_14597" x1="18.1928" y1="-5.5563" x2="35.6922" y2="41.1271" gradientUnits="userSpaceOnUse">
<stop stop-color="white"/>
<stop offset="1" stop-color="white" stop-opacity="0"/>
</linearGradient>
</defs>
</svg>
