<svg width="36" height="36" viewBox="0 0 36 36" fill="none" xmlns="http://www.w3.org/2000/svg">
<path d="M7.26845 14.1384C4.36931 12.9787 2.91974 12.3989 2.91974 11.6784C2.91974 10.9578 4.36931 10.378 7.26845 9.21835L11.3684 7.57835C14.2676 6.41869 15.7172 5.83887 17.5185 5.83887C19.3197 5.83887 20.7693 6.41869 23.6685 7.57835L27.7685 9.21835C30.6676 10.378 32.1172 10.9578 32.1172 11.6784C32.1172 12.3989 30.6676 12.9787 27.7685 14.1384L23.6685 15.7784C20.7693 16.938 19.3197 17.5178 17.5185 17.5178C15.7172 17.5178 14.2676 16.938 11.3684 15.7784L7.26845 14.1384Z" fill="#1C274C"/>
<path fill-rule="evenodd" clip-rule="evenodd" d="M2.91974 11.6784C2.91974 12.3989 4.36931 12.9787 7.26845 14.1384L11.3684 15.7784C14.2676 16.938 15.7172 17.5178 17.5185 17.5178C19.3197 17.5178 20.7693 16.938 23.6685 15.7784L27.7685 14.1384C30.6676 12.9787 32.1172 12.3989 32.1172 11.6784C32.1172 10.9578 30.6676 10.378 27.7685 9.21835L23.6685 7.57835C20.7693 6.41869 19.3197 5.83887 17.5185 5.83887C15.7172 5.83887 14.2676 6.41869 11.3684 7.57835L7.26845 9.21835C4.36931 10.378 2.91974 10.9578 2.91974 11.6784Z" fill="url(#paint0_linear_1954_14601)"/>
<path d="M27.7685 19.9778L23.6685 21.6178C20.7693 22.7775 19.3197 23.3573 17.5185 23.3573C15.7172 23.3573 14.2676 22.7775 11.3684 21.6178L7.26845 19.9778C4.36931 18.8182 2.91974 18.2384 2.91974 17.5178C2.91974 16.8684 4.09758 16.3332 6.45325 15.3846L11.0387 17.2188C13.7375 18.2989 15.4337 18.9777 17.5185 18.9777C19.6032 18.9777 21.2994 18.2989 23.9982 17.2188L28.5836 15.3846C30.9393 16.3332 32.1172 16.8684 32.1172 17.5178C32.1172 18.2384 30.6676 18.8182 27.7685 19.9778Z" fill="url(#paint1_linear_1954_14601)"/>
<path d="M27.7685 25.8171L23.6685 27.4571C20.7693 28.6167 19.3197 29.1965 17.5185 29.1965C15.7172 29.1965 14.2676 28.6167 11.3684 27.4571L7.26845 25.8171C4.36931 24.6574 2.91974 24.0776 2.91974 23.3571C2.91974 22.7076 4.09758 22.1724 6.45325 21.2238L11.0387 23.058C13.7375 24.1381 15.4337 24.8169 17.5185 24.8169C19.6032 24.8169 21.2994 24.1381 23.9982 23.058L28.5836 21.2238C30.9393 22.1724 32.1172 22.7076 32.1172 23.3571C32.1172 24.0776 30.6676 24.6574 27.7685 25.8171Z" fill="url(#paint2_linear_1954_14601)"/>
<defs>
<linearGradient id="paint0_linear_1954_14601" x1="17.9152" y1="-1.21469" x2="29.6343" y2="37.865" gradientUnits="userSpaceOnUse">
<stop stop-color="white"/>
<stop offset="1" stop-color="white" stop-opacity="0"/>
</linearGradient>
<linearGradient id="paint1_linear_1954_14601" x1="17.9152" y1="-1.21469" x2="29.6343" y2="37.865" gradientUnits="userSpaceOnUse">
<stop stop-color="white"/>
<stop offset="1" stop-color="white" stop-opacity="0"/>
</linearGradient>
<linearGradient id="paint2_linear_1954_14601" x1="17.9152" y1="-1.21469" x2="29.6343" y2="37.865" gradientUnits="userSpaceOnUse">
<stop stop-color="white"/>
<stop offset="1" stop-color="white" stop-opacity="0"/>
</linearGradient>
</defs>
</svg>
