<svg width="36" height="36" viewBox="0 0 36 36" fill="none" xmlns="http://www.w3.org/2000/svg">
<path d="M18.3737 31.2622C19.2288 32.1173 20.6052 32.1173 23.358 32.1173H26.2777C29.0305 32.1173 30.4069 32.1173 31.262 31.2622C32.1172 30.407 32.1172 29.0306 32.1172 26.2779V8.75941C32.1172 6.00667 32.1172 4.63027 31.262 3.7751C30.4069 2.91992 29.0305 2.91992 26.2777 2.91992H23.358C20.6052 2.91992 19.2288 2.91992 18.3737 3.7751C17.6403 4.50847 17.5358 5.62516 17.521 7.6645L20.4382 7.6645C21.0429 7.6645 21.5331 8.15471 21.5331 8.75941C21.5331 9.36411 21.0429 9.85431 20.4382 9.85431H17.5185V12.0441H21.8981C22.5028 12.0441 22.993 12.5343 22.993 13.139C22.993 13.7437 22.5028 14.2339 21.8981 14.2339H17.5185V16.4237H20.4382C21.0429 16.4237 21.5331 16.9139 21.5331 17.5186C21.5331 18.1233 21.0429 18.6135 20.4382 18.6135H17.5185V20.8033L21.8981 20.8033C22.5028 20.8033 22.993 21.2935 22.993 21.8982C22.993 22.5029 22.5028 22.9932 21.8981 22.9932L17.5185 22.9931V25.183H20.4382C21.0429 25.183 21.5331 25.6732 21.5331 26.2779C21.5331 26.8826 21.0429 27.3728 20.4382 27.3728H17.521C17.5358 29.4121 17.6403 30.5288 18.3737 31.2622Z" fill="url(#paint0_linear_1954_14603)"/>
<path d="M11.679 22.1807L11.679 10.5319C10.5563 10.9947 9.07551 11.3916 7.29962 11.3916C5.52345 11.3916 4.04243 10.9946 2.91974 10.5317L2.91974 22.1807C2.91974 23.0897 2.91974 23.5443 2.97487 23.9903C3.03991 24.5165 3.16208 25.034 3.33921 25.5336C3.48936 25.9572 3.69263 26.3638 4.09918 27.1769L6.24298 31.4645C6.44304 31.8646 6.852 32.1173 7.29935 32.1173C7.7467 32.1173 8.15566 31.8646 8.35573 31.4645L10.4995 27.1769C10.9061 26.3638 11.1093 25.9572 11.2595 25.5336C11.4366 25.0339 11.5588 24.5165 11.6238 23.9903C11.679 23.5443 11.679 23.0897 11.679 22.1807Z" fill="url(#paint1_linear_1954_14603)"/>
<path d="M11.679 7.29954C11.679 4.88074 9.71814 2.91992 7.29935 2.91992C4.88056 2.91992 2.91974 4.88074 2.91974 7.29954L2.91974 8.69666C2.95819 8.71598 2.9974 8.73534 3.03736 8.75472C4.03142 9.23669 5.482 9.72106 7.29962 9.72106C9.11724 9.72105 10.5678 9.23668 11.5619 8.75471C11.6017 8.73543 11.6407 8.71615 11.679 8.69692V7.29954Z" fill="url(#paint2_linear_1954_14603)"/>
<defs>
<linearGradient id="paint0_linear_1954_14603" x1="25.0162" y1="-5.89712" x2="50.5701" y2="28.1881" gradientUnits="userSpaceOnUse">
<stop stop-color="white"/>
<stop offset="1" stop-color="white" stop-opacity="0"/>
</linearGradient>
<linearGradient id="paint1_linear_1954_14603" x1="7.41836" y1="-5.89712" x2="33.3928" y2="14.8907" gradientUnits="userSpaceOnUse">
<stop stop-color="white"/>
<stop offset="1" stop-color="white" stop-opacity="0"/>
</linearGradient>
<linearGradient id="paint2_linear_1954_14603" x1="7.41836" y1="-5.89712" x2="33.3928" y2="14.8907" gradientUnits="userSpaceOnUse">
<stop stop-color="white"/>
<stop offset="1" stop-color="white" stop-opacity="0"/>
</linearGradient>
</defs>
</svg>
