<svg width="36" height="36" viewBox="0 0 36 36" fill="none" xmlns="http://www.w3.org/2000/svg">
<path fill-rule="evenodd" clip-rule="evenodd" d="M5.05767 5.05785C2.91974 7.19579 2.91974 10.6367 2.91974 17.5186C2.91974 24.4005 2.91974 27.8415 5.05767 29.9794C7.1956 32.1173 10.6366 32.1173 17.5185 32.1173C24.4003 32.1173 27.8413 32.1173 29.9792 29.9794C32.1172 27.8415 32.1172 24.4005 32.1172 17.5186C32.1172 10.6367 32.1172 7.19579 29.9792 5.05785C27.8413 2.91992 24.4003 2.91992 17.5185 2.91992C10.6366 2.91992 7.1956 2.91992 5.05767 5.05785ZM19.6908 9.41037C20.2749 9.56688 20.6215 10.1673 20.465 10.7514L16.6866 24.8526C16.5301 25.4367 15.9297 25.7833 15.3456 25.6268C14.7615 25.4703 14.4149 24.87 14.5714 24.2859L18.3498 10.1846C18.5064 9.60049 19.1067 9.25387 19.6908 9.41037ZM21.8538 12.3648C22.2814 11.9372 22.9746 11.9372 23.4022 12.3648L23.7064 12.669C24.6339 13.5964 25.4073 14.3698 25.9388 15.0663C26.4997 15.8015 26.8931 16.5783 26.8931 17.5186C26.8931 18.459 26.4997 19.2358 25.9388 19.9709C25.4073 20.6675 24.6339 21.4408 23.7064 22.3683L23.4022 22.6725C22.9746 23.1001 22.2814 23.1001 21.8538 22.6725C21.4262 22.2449 21.4262 21.5516 21.8538 21.124L22.1043 20.8736C23.0994 19.8784 23.7662 19.2083 24.1978 18.6426C24.6101 18.1022 24.7033 17.7877 24.7033 17.5186C24.7033 17.2496 24.6101 16.935 24.1978 16.3946C23.7662 15.829 23.0994 15.1588 22.1043 14.1637L21.8538 13.9132C21.4262 13.4857 21.4262 12.7924 21.8538 12.3648ZM11.635 12.3648C12.0625 11.9372 12.7558 11.9372 13.1834 12.3648C13.611 12.7924 13.611 13.4857 13.1834 13.9132L12.9329 14.1637C11.9378 15.1588 11.271 15.829 10.8394 16.3946C10.427 16.935 10.3339 17.2496 10.3339 17.5186C10.3339 17.7877 10.427 18.1022 10.8394 18.6426C11.271 19.2083 11.9378 19.8784 12.9329 20.8736L13.1834 21.124C13.611 21.5516 13.611 22.2449 13.1834 22.6725C12.7558 23.1001 12.0625 23.1001 11.635 22.6725L11.3308 22.3683C10.4033 21.4409 9.62986 20.6675 9.09842 19.9709C8.53749 19.2358 8.14405 18.459 8.14405 17.5186C8.14405 16.5783 8.53749 15.8015 9.09842 15.0663C9.62985 14.3698 10.4033 13.5964 11.3308 12.669L11.635 12.3648Z" fill="url(#paint0_linear_1954_14599)"/>
<defs>
<linearGradient id="paint0_linear_1954_14599" x1="17.9152" y1="-5.89712" x2="35.4145" y2="40.7863" gradientUnits="userSpaceOnUse">
<stop stop-color="white"/>
<stop offset="1" stop-color="white" stop-opacity="0"/>
</linearGradient>
</defs>
</svg>
