<svg width="36" height="36" viewBox="0 0 36 36" fill="none" xmlns="http://www.w3.org/2000/svg">
<path fill-rule="evenodd" clip-rule="evenodd" d="M16.8063 6.48058C11.1015 6.48058 6.4804 11.0993 6.4804 16.7925C6.4804 22.4857 11.1015 27.1045 16.8063 27.1045C19.6525 27.1045 22.2265 25.9569 24.0959 24.0961C25.9737 22.2268 27.1322 19.6463 27.1322 16.7925C27.1322 11.0993 22.5111 6.48058 16.8063 6.48058ZM2.91974 16.7925C2.91974 9.12896 9.13891 2.91992 16.8063 2.91992C24.4737 2.91992 30.6929 9.12896 30.6929 16.7925C30.6929 19.9886 29.6094 22.934 27.7921 25.2789L31.595 29.0774C32.2907 29.7723 32.2913 30.8995 31.5964 31.5952C30.9016 32.2908 29.7743 32.2915 29.0787 31.5966L25.2694 27.7918C22.927 29.5927 19.9907 30.6651 16.8063 30.6651C9.13891 30.6651 2.91974 24.4561 2.91974 16.7925Z" fill="url(#paint0_linear_1954_14606)"/>
<defs>
<linearGradient id="paint0_linear_1954_14606" x1="17.9152" y1="-5.89712" x2="35.4145" y2="40.7863" gradientUnits="userSpaceOnUse">
<stop stop-color="white"/>
<stop offset="1" stop-color="white" stop-opacity="0"/>
</linearGradient>
</defs>
</svg>
