<svg width="31" height="31" viewBox="0 0 31 31" fill="none" xmlns="http://www.w3.org/2000/svg">
<path fill-rule="evenodd" clip-rule="evenodd" d="M3.05767 3.05785C1.48064 4.63489 1.06689 6.92092 0.958345 10.7741H30.0786C29.97 6.92092 29.5563 4.63489 27.9792 3.05785C25.8413 0.919922 22.4003 0.919922 15.5185 0.919922C8.63655 0.919922 5.1956 0.919922 3.05767 3.05785ZM0.919739 15.5186C0.919739 14.6085 0.919739 13.7586 0.924684 12.9639H10.0439L10.0439 28.6575V30.0535C6.62729 29.9116 4.53246 29.4542 3.05767 27.9794C0.919739 25.8415 0.919739 22.4005 0.919739 15.5186ZM6.75922 8.21928C7.56549 8.21928 8.21909 7.56567 8.21909 6.75941C8.21909 5.95314 7.56549 5.29954 6.75922 5.29954C5.95296 5.29954 5.29935 5.95314 5.29935 6.75941C5.29935 7.56567 5.95296 8.21928 6.75922 8.21928ZM12.5987 6.75941C12.5987 7.56567 11.9451 8.21928 11.1388 8.21928C10.3326 8.21928 9.67897 7.56567 9.67897 6.75941C9.67897 5.95314 10.3326 5.29954 11.1388 5.29954C11.9451 5.29954 12.5987 5.95314 12.5987 6.75941ZM15.5185 8.21928C16.3247 8.21928 16.9783 7.56567 16.9783 6.75941C16.9783 5.95314 16.3247 5.29954 15.5185 5.29954C14.7122 5.29954 14.0586 5.95314 14.0586 6.75941C14.0586 7.56567 14.7122 8.21928 15.5185 8.21928Z" fill="url(#paint0_linear_1954_14598)"/>
<path d="M30.1172 15.5186C30.1172 22.4005 30.1172 25.8415 27.9792 27.9794C25.8413 30.1173 22.4003 30.1173 15.5185 30.1173C14.3235 30.1173 13.2324 30.1173 12.2337 30.1062V28.6575L12.2337 12.9639H30.1122C30.1172 13.7586 30.1172 14.6085 30.1172 15.5186Z" fill="url(#paint1_linear_1954_14598)"/>
<defs>
<linearGradient id="paint0_linear_1954_14598" x1="15.9152" y1="-7.89712" x2="33.4145" y2="38.7863" gradientUnits="userSpaceOnUse">
<stop stop-color="white"/>
<stop offset="1" stop-color="white" stop-opacity="0"/>
</linearGradient>
<linearGradient id="paint1_linear_1954_14598" x1="15.9152" y1="-7.89712" x2="33.4145" y2="38.7863" gradientUnits="userSpaceOnUse">
<stop stop-color="white"/>
<stop offset="1" stop-color="white" stop-opacity="0"/>
</linearGradient>
</defs>
</svg>
